<svg width="24" height="24" viewBox="0 0 24 24" fill="none" xmlns="http://www.w3.org/2000/svg">
<path d="M7.99976 9.49585C8.10019 9.49585 8.19773 9.52582 8.28003 9.58081L8.3562 9.64331L11.6462 12.9431L11.9998 13.2976L12.3533 12.9431L15.6208 9.67456C15.7156 9.59587 15.8364 9.55554 15.9597 9.5603C16.0855 9.56517 16.2047 9.61688 16.2937 9.70581C16.3827 9.79477 16.4352 9.9141 16.4402 10.0398C16.4449 10.163 16.4026 10.2829 16.324 10.3777L12.3474 14.3552C12.2543 14.4474 12.1288 14.4992 11.9978 14.4998H11.9968C11.9312 14.5001 11.8662 14.4874 11.8054 14.4626C11.775 14.4502 11.7458 14.4348 11.7185 14.4167L11.6423 14.3552L7.64331 10.3562C7.54889 10.2617 7.49585 10.1334 7.49585 9.99976C7.4959 9.86613 7.54882 9.7378 7.64331 9.64331C7.7378 9.54882 7.86613 9.4959 7.99976 9.49585Z" fill="#A098AE" stroke="#A098AE"/>
</svg>
